HIERARCHY
ROOT Hips
{
  OFFSET -10.0563 7.73376 -472.55
  CHANNELS 6 Xposition Yposition Zposition Zrotation Xrotation Yrotation
  JOINT Spine
  {
    OFFSET 0 0 0
    CHANNELS 3 Zrotation Xrotation Yrotation
    JOINT Spine1
    {
      OFFSET 19 0 0
      CHANNELS 3 Zrotation Xrotation Yrotation
      JOINT Neck
      {
        OFFSET 22.5 0.6 0
        CHANNELS 3 Zrotation Xrotation Yrotation
        JOINT Head
        {
          OFFSET 14 0.0308777 0
          CHANNELS 3 Zrotation Xrotation Yrotation
          End Site
          {
            OFFSET 17 0 0
          }
        }
      }
      JOINT LeftShoulder
      {
        OFFSET 19.8 3.7 4.3
        CHANNELS 3 Zrotation Xrotation Yrotation
        JOINT LeftArm
        {
          OFFSET 8 0 0
          CHANNELS 3 Zrotation Xrotation Yrotation
          JOINT LeftForeArm
          {
            OFFSET 15.2 0 0
            CHANNELS 3 Zrotation Xrotation Yrotation
            JOINT LeftHand
            {
              OFFSET 17.8 0 0
              CHANNELS 3 Zrotation Xrotation Yrotation
              End Site
              {
                OFFSET 7.2 0 0
              }
            }
          }
        }
      }
      JOINT RightShoulder
      {
        OFFSET 19.8 3.7 -4.3
        CHANNELS 3 Zrotation Xrotation Yrotation
        JOINT RightArm
        {
          OFFSET 8 0 0.151654
          CHANNELS 3 Zrotation Xrotation Yrotation
          JOINT RightForeArm
          {
            OFFSET 15.2 0 0
            CHANNELS 3 Zrotation Xrotation Yrotation
            JOINT RightHand
            {
              OFFSET 17.8 0 0
              CHANNELS 3 Zrotation Xrotation Yrotation
              End Site
              {
                OFFSET 7.2 0 0
              }
            }
          }
        }
      }
    }
  }
  JOINT LeftUpLeg
  {
    OFFSET 5.98425 -7.666 4.78879
    CHANNELS 3 Zrotation Xrotation Yrotation
    JOINT LeftLeg
    {
      OFFSET 16 0 0
      CHANNELS 3 Zrotation Xrotation Yrotation
      JOINT LeftFoot
      {
        OFFSET 18 0 0
        CHANNELS 3 Zrotation Xrotation Yrotation
        End Site
        {
          OFFSET 0 -10.8 0
        }
      }
    }
  }
  JOINT RightUpLeg
  {
    OFFSET 5.98425 -7.66598 -4.78879
    CHANNELS 3 Zrotation Xrotation Yrotation
    JOINT RightLeg
    {
      OFFSET 16 0 0
      CHANNELS 3 Zrotation Xrotation Yrotation
      JOINT RightFoot
      {
        OFFSET 18 0 0
        CHANNELS 3 Zrotation Xrotation Yrotation
        End Site
        {
          OFFSET 0 -10.8 0
        }
      }
    }
  }
  JOINT Tail
  {
    OFFSET 6.83696 -0.722574 0
    CHANNELS 3 Zrotation Xrotation Yrotation
    JOINT Tail1
    {
      OFFSET 12 0 0
      CHANNELS 3 Zrotation Xrotation Yrotation
      End Site
      {
        OFFSET 12 0 0
      }
    }
  }
}
MOTION
Frames:	14
Frame Time:	0.0166667
56.0812 9.56339 77.4056 -92.1098 -48.6036 32.0571 -133.854 14.8257 17.6683 -4.22749 6.87763 -2.75413 7.36004 5.92196 -7.16669 -123.958 74.7795 146.122 -109.355 -36.3155 -135.867 85.1963 -43.9967 -163.78 -63.7193 12.558 1.33721 -10.8807 2.01111 -8.18943 75.1574 -30.878 46.1579 3.81331 -65.7623 -90.8868 -60.8379 -6.60211 -7.45216 -4.22304 0.573481 10.7786 -150.844 -34.8615 -50.832 130.854 1.23801 -4.81606 -12.9231 -2.92633 -6.07939 -126.724 -9.50045 12.2592 131.503 -12.7976 -4.26684 8.41184 -1.91464 -2.51513 69.2908 -32.0584 38.2694 8.01803 -13.7963 -4.80054 
56.0744 9.5653 77.4079 -92.0267 -48.575 32.1403 -133.78 14.8537 17.6591 -4.39608 6.906 -2.78057 7.31201 5.85073 -7.09036 -123.683 74.7403 145.931 -109.362 -36.3275 -135.863 85.0205 -43.9715 -163.92 -63.8154 12.5465 1.4189 -10.9352 2.00524 -8.17648 75.1625 -30.8647 46.1454 3.92164 -65.8732 -90.8568 -60.953 -6.66891 -7.44246 -4.22139 0.58259 10.7653 -150.947 -34.9215 -50.7976 130.823 1.07707 -4.81891 -12.8815 -2.92515 -6.06271 -126.748 -9.37345 12.1925 131.505 -12.5814 -4.24874 8.30073 -1.91838 -2.5281 69.1176 -32.0613 38.2123 8.03298 -13.8598 -4.81458 
56.0826 9.55418 77.4049 -91.9425 -48.5916 32.2109 -133.716 14.8331 17.67 -4.51145 6.86962 -2.78851 7.20437 5.81383 -7.04754 -123.413 74.6254 145.774 -109.378 -36.3589 -135.845 84.7866 -43.9316 -164.03 -63.926 12.496 1.46722 -10.9622 2.03573 -8.30413 75.1102 -30.882 46.0048 4.66814 -65.9826 -90.5251 -61.0963 -6.70945 -7.31555 -4.1667 0.581196 10.741 -150.911 -34.8178 -50.6786 130.866 1.13671 -4.78258 -12.6749 -2.92109 -6.04275 -126.79 -9.3711 12.1958 131.51 -12.466 -4.2447 8.2753 -1.93137 -2.55261 69.1662 -32.0804 38.2754 8.00031 -13.7901 -4.86834 
56.0827 9.56112 77.3911 -91.9592 -48.639 32.1987 -133.536 14.804 17.5971 -4.68303 6.8358 -2.74518 7.08546 5.79425 -7.03228 -123.057 74.3686 145.601 -109.391 -36.4139 -135.778 84.4842 -43.9363 -164.181 -64.0846 12.481 1.50773 -10.9475 2.05152 -8.37656 75.1002 -30.8603 45.9215 5.64404 -66.0324 -90.1489 -61.1591 -6.71433 -7.21547 -4.28591 0.54678 10.7921 -150.903 -34.9429 -50.6857 130.787 1.00275 -4.78054 -12.7294 -2.9161 -6.02804 -126.797 -9.50206 12.1966 131.51 -12.641 -4.26369 8.3535 -1.92967 -2.54518 69.1219 -32.0597 38.2112 8.0243 -13.8263 -4.88279 
56.07 9.57007 77.393 -91.9382 -48.631 32.204 -133.398 14.8028 17.5004 -4.88271 6.85563 -2.71906 7.05362 5.74315 -7.02568 -122.605 73.9931 145.159 -109.408 -36.4623 -135.731 84.2179 -44.0071 -164.366 -64.2447 12.4747 1.55996 -10.8966 2.04322 -8.36808 75.1452 -30.7769 45.8865 6.29425 -66.1128 -89.9127 -61.223 -6.72856 -7.16599 -4.43347 0.492392 10.9687 -150.938 -34.8006 -50.6847 130.871 1.08285 -4.77951 -12.6275 -2.91218 -6.00321 -126.817 -9.59427 12.1387 131.495 -12.7496 -4.2714 8.32332 -1.93414 -2.55938 68.9662 -32.0227 38.1171 8.14017 -13.9185 -4.86126 
56.063 9.57003 77.3934 -91.9322 -48.6413 32.2189 -133.367 14.8188 17.512 -4.92409 6.86594 -2.73939 6.99889 5.61862 -7.13608 -121.707 73.2097 144.167 -109.426 -36.5017 -135.706 84.1716 -44.0304 -164.364 -64.2508 12.5326 1.55115 -10.8888 2.02126 -8.27599 75.1535 -30.733 45.815 7.12447 -66.1874 -89.3452 -61.3441 -6.99193 -7.12164 -4.45824 0.559603 10.6675 -150.894 -34.9024 -50.6532 130.812 1.01993 -4.79531 -12.7242 -2.91109 -6.0038 -126.803 -9.59934 12.0547 131.522 -12.6664 -4.26682 8.29977 -1.94025 -2.57096 69.0482 -32.0378 38.1172 8.0797 -13.86 -4.84109 
56.079 9.56271 77.3931 -91.8954 -48.6798 32.3104 -133.487 14.8284 17.6501 -4.77714 6.82512 -2.7417 6.91437 5.44102 -7.44468 -120.394 71.7392 142.615 -109.422 -36.5013 -135.695 84.3189 -43.9901 -164.214 -64.1469 12.5459 1.51224 -10.8994 2.0233 -8.26222 75.0973 -30.7772 45.7225 7.8751 -66.1661 -88.7553 -61.3847 -7.19469 -7.0978 -4.46967 0.636849 10.3113 -150.821 -35.1293 -50.563 130.677 0.861597 -4.79893 -12.8237 -2.91693 -6.02613 -126.758 -9.56071 12.0921 131.519 -12.6014 -4.26017 8.26942 -1.93946 -2.56793 69.0088 -32.0811 38.0392 8.07604 -13.8604 -4.81882 
56.0988 9.55605 77.4068 -91.8647 -48.6617 32.3704 -133.678 14.8192 17.7679 -4.5678 6.79033 -2.75737 6.88542 5.30286 -7.87219 -119.22 69.7071 141.051 -109.412 -36.4775 -135.714 84.5299 -43.9587 -164.064 -64.0074 12.5225 1.4611 -10.9249 2.04608 -8.34183 75.0711 -30.8064 45.6993 7.79085 -66.0572 -88.7368 -61.2821 -7.04396 -7.09919 -4.41291 0.623184 10.3598 -150.936 -34.9533 -50.5782 130.817 0.907248 -4.77546 -12.4801 -2.92479 -6.036 -126.763 -9.57728 12.1536 131.49 -12.6772 -4.26592 8.26542 -1.93957 -2.57204 68.8834 -32.1106 38.0303 8.09767 -13.9201 -4.85139 
56.1065 9.5514 77.4137 -92.0443 -48.5605 32.1952 -133.759 14.8095 17.6781 -4.36043 6.83385 -2.72822 6.85395 5.0773 -8.27731 -118.004 67.4601 139.623 -109.403 -36.4388 -135.762 84.7939 -43.9191 -163.873 -63.854 12.5782 1.35375 -10.9065 2.02754 -8.26326 75.0944 -30.7982 45.7606 6.93182 -65.8941 -89.2117 -61.067 -6.8361 -7.11382 -4.38301 0.557522 10.6621 -151.02 -34.8828 -50.7861 130.85 0.886419 -4.79389 -12.4836 -2.92625 -6.05112 -126.613 -9.4079 12.0246 131.362 -12.5704 -4.26671 8.08134 -1.9393 -2.55717 69.161 -32.1477 38.2816 8.00822 -13.8329 -4.85397 
56.1071 9.54885 77.4123 -92.1524 -48.5179 32.0702 -133.912 14.7828 17.6165 -4.09802 6.85076 -2.675 6.78186 4.80569 -8.64205 -116.884 65.2308 138.48 -109.394 -36.3855 -135.839 85.1382 -43.8909 -163.707 -63.6775 12.584 1.31173 -10.8966 2.01363 -8.21427 75.121 -30.8021 45.8607 5.95658 -65.699 -89.6871 -60.8107 -6.76529 -7.17662 -4.44487 0.51237 10.8662 -150.922 -34.9003 -50.8453 130.807 0.918722 -4.81342 -12.6444 -2.92668 -6.05683 -126.612 -9.40698 12.0001 131.351 -12.6407 -4.27013 8.20262 -1.92899 -2.53535 69.3833 -32.1484 38.4166 7.93838 -13.747 -4.84576 
56.1072 9.54744 77.4103 -92.1268 -48.5305 32.0752 -134.08 14.7583 17.6305 -3.92624 6.83232 -2.61646 6.71934 4.62036 -8.96382 -116.103 63.3221 137.818 -109.379 -36.3423 -135.88 85.4065 -43.9206 -163.576 -63.4885 12.5673 1.29373 -10.9595 2.02667 -8.26379 75.1345 -30.8222 45.9529 5.40639 -65.6255 -89.8579 -60.688 -6.84281 -7.25871 -4.49028 0.54904 10.7159 -150.879 -34.9026 -50.7874 130.826 0.89961 -4.81708 -12.6228 -2.92639 -6.04742 -126.749 -9.47102 12.1167 131.437 -12.7433 -4.27348 8.46586 -1.91701 -2.52171 69.3539 -32.1276 38.4034 7.96501 -13.7571 -4.85286 
56.1152 9.52908 77.4044 -92.1985 -48.5544 32.0344 -134.026 14.7677 17.6385 -3.97292 6.8273 -2.60689 6.72901 4.42071 -9.10346 -115.519 62.0199 137.308 -109.36 -36.3296 -135.855 85.374 -43.9324 -163.563 -63.5161 12.5814 1.26399 -10.9456 2.02849 -8.26396 75.1451 -30.83 46.0067 4.58453 -65.6559 -90.2763 -60.7147 -6.7455 -7.35152 -4.4126 0.5557 10.7621 -150.812 -34.6899 -50.721 130.937 0.999525 -4.79447 -12.337 -2.92534 -6.03965 -126.714 -9.41455 12.2153 131.432 -12.6996 -4.27346 8.46876 -1.91942 -2.52691 69.4559 -32.1508 38.4383 7.96245 -13.7288 -4.84755 
56.1176 9.52963 77.3954 -92.272 -48.579 31.9951 -133.875 14.7865 17.6375 -4.10442 6.83514 -2.66333 6.73263 4.12651 -9.08063 -114.894 60.997 136.713 -109.359 -36.3414 -135.83 85.2317 -43.8756 -163.631 -63.6317 12.6284 1.26821 -10.9327 2.0112 -8.19109 75.1547 -30.8193 46.0155 3.83162 -65.6701 -90.6936 -60.7643 -6.59066 -7.43631 -4.29999 0.548094 10.8889 -150.825 -34.759 -50.7595 130.871 0.89126 -4.78602 -12.3176 -2.92359 -6.04024 -126.673 -9.37644 12.2319 131.431 -12.6906 -4.27281 8.52231 -1.91256 -2.5147 69.4979 -32.1647 38.427 7.9224 -13.7316 -4.86327 
56.107 9.53676 77.3816 -92.3075 -48.6087 31.9653 -133.722 14.8043 17.5959 -4.25028 6.85693 -2.69472 6.66568 3.82542 -9.05337 -114.233 59.9795 136.226 -109.378 -36.3578 -135.848 85.1188 -43.8928 -163.765 -63.7124 12.647 1.32393 -10.9682 2.01048 -8.19393 75.1532 -30.8225 46.0178 3.96651 -65.7377 -90.6571 -60.8461 -6.61561 -7.44868 -4.28939 0.55773 10.8676 -150.841 -34.9774 -50.8083 130.749 0.682107 -4.80842 -12.481 -2.92054 -6.03699 -126.611 -9.40125 12.1927 131.433 -12.7543 -4.27188 8.50748 -1.90514 -2.49965 69.5952 -32.1699 38.4601 7.96997 -13.6946 -4.86221 
